<svg width="148" height="46" viewBox="0 0 148 46" fill="none" xmlns="http://www.w3.org/2000/svg">
<path d="M1.86924 45.2613H0V28.5504H9.84948V30.2454H1.86924V36.1897H9.60983V37.8846H1.86924V45.2613Z" fill="white"/>
<path d="M17.2898 32.943C19.159 32.943 20.6927 33.6035 21.891 34.9244C23.1052 36.2294 23.6404 37.8448 23.4966 39.7706H12.8323C12.9601 40.9801 13.4474 41.9748 14.2942 42.7546C15.1569 43.5186 16.2034 43.9005 17.4335 43.9005C18.3762 43.9005 19.2149 43.6698 19.9498 43.2082C20.6848 42.7467 21.2439 42.118 21.6274 41.3223L23.1611 41.9668C22.6499 43.0332 21.891 43.8926 20.8845 44.5451C19.8779 45.1817 18.7197 45.5 17.4096 45.5C15.6042 45.5 14.0865 44.9032 12.8563 43.7096C11.6421 42.5 11.035 41.004 11.035 39.2215C11.035 37.439 11.6341 35.9509 12.8323 34.7573C14.0306 33.5477 15.5164 32.943 17.2898 32.943ZM17.2898 34.5424C16.1874 34.5424 15.2288 34.8926 14.414 35.5928C13.5992 36.2931 13.088 37.1923 12.8803 38.2905H21.6753C21.4996 37.2082 21.0043 36.317 20.1895 35.6167C19.3907 34.9005 18.4241 34.5424 17.2898 34.5424Z" fill="white"/>
<path d="M27.9385 45.2613H26.1411V27.5955H27.9385V45.2613Z" fill="white"/>
<path d="M30.7454 29.6008C30.7454 29.2666 30.8572 28.9881 31.0809 28.7653C31.3045 28.5424 31.5841 28.431 31.9196 28.431C32.2392 28.431 32.5108 28.5424 32.7344 28.7653C32.9741 28.9881 33.0939 29.2666 33.0939 29.6008C33.0939 29.9191 32.9741 30.1897 32.7344 30.4125C32.5108 30.6353 32.2392 30.7467 31.9196 30.7467C31.5841 30.7467 31.3045 30.6353 31.0809 30.4125C30.8572 30.1897 30.7454 29.9191 30.7454 29.6008ZM32.8063 45.2613H31.009V33.1817H32.8063V45.2613Z" fill="white"/>
<path d="M42.1555 32.943C43.5774 32.943 44.7437 33.4363 45.6544 34.4231C46.581 35.4098 47.0443 36.6512 47.0443 38.1472V45.2613H45.247V38.3621C45.247 37.2958 44.8955 36.4045 44.1925 35.6883C43.4896 34.9562 42.6189 34.5902 41.5804 34.5902C40.4461 34.5902 39.5114 34.9483 38.7765 35.6645C38.0416 36.3806 37.6741 37.2798 37.6741 38.3621V45.2613H35.8768V33.1817H37.6741V36.2851C38.0097 35.2666 38.5768 34.4549 39.3756 33.8501C40.1745 33.2454 41.1011 32.943 42.1555 32.943Z" fill="white"/>
<path d="M55.7877 32.943C57.6569 32.943 59.1907 33.6035 60.3889 34.9244C61.6031 36.2294 62.1383 37.8448 61.9945 39.7706H51.3303C51.4581 40.9801 51.9454 41.9748 52.7921 42.7546C53.6548 43.5186 54.7013 43.9005 55.9315 43.9005C56.8741 43.9005 57.7129 43.6698 58.4478 43.2082C59.1827 42.7467 59.7419 42.118 60.1253 41.3223L61.659 41.9668C61.1478 43.0332 60.3889 43.8926 59.3824 44.5451C58.3759 45.1817 57.2176 45.5 55.9075 45.5C54.1022 45.5 52.5844 44.9032 51.3542 43.7096C50.14 42.5 49.5329 41.004 49.5329 39.2215C49.5329 37.439 50.132 35.9509 51.3303 34.7573C52.5285 33.5477 54.0143 32.943 55.7877 32.943ZM55.7877 34.5424C54.6853 34.5424 53.7267 34.8926 52.9119 35.5928C52.0971 36.2931 51.5859 37.1923 51.3782 38.2905H60.1732C59.9975 37.2082 59.5022 36.317 58.6874 35.6167C57.8886 34.9005 56.922 34.5424 55.7877 34.5424Z" fill="white"/>
<path d="M73.8368 43.0172C72.1753 41.3621 71.3445 39.3249 71.3445 36.9058C71.3445 34.4867 72.1753 32.4496 73.8368 30.7944C75.5144 29.1393 77.5833 28.3117 80.0437 28.3117C81.8171 28.3117 83.3828 28.7732 84.7408 29.6963C86.0988 30.6034 87.0893 31.7493 87.7124 33.134L86.0109 33.8501C85.4837 32.7202 84.6848 31.805 83.6144 31.1048C82.56 30.3886 81.3697 30.0305 80.0437 30.0305C78.1425 30.0305 76.5368 30.6989 75.2268 32.0358C73.9167 33.3568 73.2617 34.9801 73.2617 36.9058C73.2617 38.8316 73.9167 40.4629 75.2268 41.7997C76.5368 43.1207 78.1425 43.7812 80.0437 43.7812C81.3697 43.7812 82.56 43.431 83.6144 42.7308C84.6848 42.0146 85.4837 41.0915 86.0109 39.9615L87.7124 40.6777C87.0893 42.0623 86.0988 43.2162 84.7408 44.1393C83.3828 45.0464 81.8171 45.5 80.0437 45.5C77.5833 45.5 75.5144 44.6724 73.8368 43.0172Z" fill="white"/>
<path d="M95.2249 32.943C96.5989 32.943 97.7173 33.309 98.58 34.0411C99.4427 34.7573 99.8741 35.7679 99.8741 37.0729V45.2613H98.0767V41.9668C97.2619 44.3223 95.6803 45.5 93.3317 45.5C92.2293 45.5 91.3267 45.1976 90.6237 44.5928C89.9367 43.9881 89.5932 43.1843 89.5932 42.1817C89.5932 41.0995 89.9847 40.2639 90.7675 39.6751C91.5663 39.0862 92.5968 38.7281 93.8589 38.6008L96.5669 38.2905C97.5735 38.195 98.0767 37.7334 98.0767 36.9058C98.0767 36.1578 97.8131 35.569 97.2859 35.1393C96.7587 34.7095 96.0637 34.4947 95.201 34.4947C94.3382 34.4947 93.5953 34.7095 92.9723 35.1393C92.3492 35.569 91.9258 36.2294 91.7021 37.1207L89.9527 36.6432C90.2403 35.4496 90.8554 34.5345 91.798 33.8979C92.7566 33.2613 93.8989 32.943 95.2249 32.943ZM93.7871 43.996C95.0172 43.996 96.0397 43.5902 96.8545 42.7785C97.6693 41.9509 98.0767 40.9881 98.0767 39.8899V38.8873C97.8531 39.3647 97.3099 39.6512 96.4471 39.7467L93.835 40.0332C93.1001 40.1286 92.5089 40.3515 92.0616 40.7016C91.6143 41.0358 91.3906 41.4973 91.3906 42.0862C91.3906 42.6592 91.6063 43.1207 92.0376 43.4708C92.485 43.821 93.0681 43.996 93.7871 43.996Z" fill="white"/>
<path d="M109.135 32.943C110.557 32.943 111.723 33.4363 112.634 34.4231C113.56 35.4098 114.024 36.6512 114.024 38.1472V45.2613H112.226V38.3621C112.226 37.2958 111.875 36.4045 111.172 35.6883C110.469 34.9562 109.598 34.5902 108.56 34.5902C107.425 34.5902 106.491 34.9483 105.756 35.6645C105.021 36.3806 104.654 37.2798 104.654 38.3621V45.2613H102.856V33.1817H104.654V36.2851C104.989 35.2666 105.556 34.4549 106.355 33.8501C107.154 33.2454 108.08 32.943 109.135 32.943Z" fill="white"/>
<path d="M116.728 29.6008C116.728 29.2666 116.84 28.9881 117.063 28.7653C117.287 28.5424 117.567 28.431 117.902 28.431C118.222 28.431 118.493 28.5424 118.717 28.7653C118.957 28.9881 119.077 29.2666 119.077 29.6008C119.077 29.9191 118.957 30.1897 118.717 30.4125C118.493 30.6353 118.222 30.7467 117.902 30.7467C117.567 30.7467 117.287 30.6353 117.063 30.4125C116.84 30.1897 116.728 29.9191 116.728 29.6008ZM118.789 45.2613H116.992V33.1817H118.789V45.2613Z" fill="white"/>
<path d="M128.138 32.943C129.56 32.943 130.726 33.4363 131.637 34.4231C132.564 35.4098 133.027 36.6512 133.027 38.1472V45.2613H131.23V38.3621C131.23 37.2958 130.878 36.4045 130.175 35.6883C129.472 34.9562 128.601 34.5902 127.563 34.5902C126.429 34.5902 125.494 34.9483 124.759 35.6645C124.024 36.3806 123.657 37.2798 123.657 38.3621V45.2613H121.859V33.1817H123.657V36.2851C123.992 35.2666 124.559 34.4549 125.358 33.8501C126.157 33.2454 127.084 32.943 128.138 32.943Z" fill="white"/>
<path d="M141.77 32.943C143.64 32.943 145.173 33.6035 146.372 34.9244C147.586 36.2294 148.121 37.8448 147.977 39.7706H137.313C137.441 40.9801 137.928 41.9748 138.775 42.7546C139.637 43.5186 140.684 43.9005 141.914 43.9005C142.857 43.9005 143.695 43.6698 144.43 43.2082C145.165 42.7467 145.724 42.118 146.108 41.3223L147.642 41.9668C147.13 43.0332 146.372 43.8926 145.365 44.5451C144.359 45.1817 143.2 45.5 141.89 45.5C140.085 45.5 138.567 44.9032 137.337 43.7096C136.123 42.5 135.516 41.004 135.516 39.2215C135.516 37.439 136.115 35.9509 137.313 34.7573C138.511 33.5477 139.997 32.943 141.77 32.943ZM141.77 34.5424C140.668 34.5424 139.709 34.8926 138.895 35.5928C138.08 36.2931 137.568 37.1923 137.361 38.2905H146.156C145.98 37.2082 145.485 36.317 144.67 35.6167C143.871 34.9005 142.905 34.5424 141.77 34.5424Z" fill="white"/>
<path d="M81.1413 4.97613C80.6228 4.97613 80.1161 5.12927 79.685 5.41617C79.254 5.70308 78.918 6.11088 78.7196 6.58799C78.5213 7.0651 78.4693 7.5901 78.5705 8.0966C78.6716 8.6031 78.9213 9.06835 79.2878 9.43351C79.6544 9.79868 80.1214 10.0474 80.6299 10.1481C81.1384 10.2489 81.6654 10.1971 82.1443 9.99952C82.6233 9.80189 83.0326 9.46723 83.3206 9.03784C83.6087 8.60845 83.7624 8.10362 83.7624 7.5872C83.7624 6.8947 83.4862 6.23057 82.9947 5.74089C82.5031 5.25122 81.8364 4.97613 81.1413 4.97613ZM81.1413 8.70623C80.9191 8.70623 80.7019 8.6406 80.5172 8.51764C80.3324 8.39468 80.1884 8.21991 80.1034 8.01544C80.0184 7.81096 79.9962 7.58596 80.0395 7.36889C80.0828 7.15182 80.1898 6.95243 80.3469 6.79593C80.504 6.63943 80.7042 6.53285 80.9221 6.48967C81.14 6.44649 81.3659 6.46865 81.5711 6.55335C81.7764 6.63805 81.9519 6.78148 82.0753 6.9655C82.1987 7.14953 82.2646 7.36588 82.2646 7.5872C82.2646 7.88399 82.1462 8.16862 81.9356 8.37848C81.7249 8.58834 81.4392 8.70623 81.1413 8.70623ZM68.0356 7.5872C68.0356 7.07078 67.8818 6.56596 67.5938 6.13657C67.3058 5.70718 66.8965 5.37251 66.4175 5.17488C65.9386 4.97726 65.4115 4.92555 64.9031 5.0263C64.3946 5.12705 63.9276 5.37573 63.561 5.74089C63.1944 6.10606 62.9448 6.57131 62.8437 7.07781C62.7425 7.58431 62.7944 8.10931 62.9928 8.58642C63.1912 9.06353 63.5272 9.47132 63.9582 9.75823C64.3893 10.0451 64.896 10.1983 65.4144 10.1983C66.1096 10.1983 66.7763 9.92318 67.2679 9.43351C67.7594 8.94384 68.0356 8.2797 68.0356 7.5872ZM65.4144 8.70623C65.1923 8.70623 64.9751 8.6406 64.7903 8.51764C64.6056 8.39468 64.4616 8.21991 64.3766 8.01544C64.2916 7.81096 64.2693 7.58596 64.3127 7.36889C64.356 7.15182 64.463 6.95243 64.6201 6.79593C64.7772 6.63943 64.9774 6.53285 65.1953 6.48967C65.4132 6.44649 65.6391 6.46865 65.8443 6.55335C66.0496 6.63805 66.225 6.78148 66.3485 6.9655C66.4719 7.14953 66.5378 7.36588 66.5378 7.5872C66.5378 7.88399 66.4194 8.16862 66.2088 8.37848C65.9981 8.58834 65.7124 8.70623 65.4144 8.70623ZM69.9078 5.72215C70.4262 5.72215 70.933 5.56901 71.364 5.2821C71.7951 4.9952 72.131 4.5874 72.3294 4.11029C72.5278 3.63318 72.5797 3.10818 72.4786 2.60168C72.3774 2.09518 72.1278 1.62993 71.7612 1.26477C71.3947 0.899602 70.9276 0.650921 70.4192 0.550172C69.9107 0.449423 69.3837 0.501131 68.9048 0.698757C68.4258 0.896383 68.0164 1.23105 67.7284 1.66044C67.4404 2.08983 67.2867 2.59465 67.2867 3.11108C67.2867 3.80358 67.5628 4.46771 68.0544 4.95738C68.5459 5.44705 69.2126 5.72215 69.9078 5.72215ZM69.9078 1.99204C70.13 1.99204 70.3472 2.05767 70.5319 2.18063C70.7166 2.3036 70.8606 2.47836 70.9456 2.68284C71.0307 2.88732 71.0529 3.11232 71.0096 3.32939C70.9662 3.54646 70.8592 3.74585 70.7021 3.90235C70.545 4.05885 70.3449 4.16543 70.127 4.20861C69.9091 4.25178 69.6832 4.22962 69.4779 4.14493C69.2727 4.06023 69.0972 3.9168 68.9738 3.73278C68.8503 3.54875 68.7845 3.3324 68.7845 3.11108C68.7845 2.81429 68.9028 2.52966 69.1135 2.3198C69.3242 2.10994 69.6099 1.99204 69.9078 1.99204ZM76.6479 5.72215C77.1663 5.72215 77.6731 5.56901 78.1041 5.2821C78.5351 4.9952 78.8711 4.5874 79.0695 4.11029C79.2679 3.63318 79.3198 3.10818 79.2187 2.60168C79.1175 2.09518 78.8679 1.62993 78.5013 1.26477C78.1347 0.899602 77.6677 0.650921 77.1592 0.550172C76.6508 0.449423 76.1238 0.501131 75.6448 0.698757C75.1659 0.896383 74.7565 1.23105 74.4685 1.66044C74.1805 2.08983 74.0267 2.59465 74.0267 3.11108C74.0267 3.80358 74.3029 4.46771 74.7944 4.95738C75.286 5.44705 75.9527 5.72215 76.6479 5.72215ZM76.6479 1.99204C76.87 1.99204 77.0872 2.05767 77.272 2.18063C77.4567 2.3036 77.6007 2.47836 77.6857 2.68284C77.7707 2.88732 77.793 3.11232 77.7496 3.32939C77.7063 3.54646 77.5993 3.74585 77.4422 3.90235C77.2851 4.05885 77.0849 4.16543 76.867 4.20861C76.6491 4.25178 76.4233 4.22962 76.218 4.14493C76.0127 4.06023 75.8373 3.9168 75.7139 3.73278C75.5904 3.54875 75.5245 3.3324 75.5245 3.11108C75.5245 2.81429 75.6429 2.52966 75.8536 2.3198C76.0642 2.10994 76.3499 1.99204 76.6479 1.99204ZM78.8122 11.3975C78.4318 11.1885 78.0965 10.9067 77.8255 10.5685C77.5545 10.2302 77.3532 9.84202 77.2329 9.42614C76.9839 8.57311 76.4638 7.82363 75.7505 7.29032C75.0373 6.75702 74.1696 6.4687 73.2778 6.4687C72.3861 6.4687 71.5184 6.75702 70.8051 7.29032C70.0919 7.82363 69.5717 8.57311 69.3227 9.42614C69.0822 10.263 68.5183 10.9706 67.7547 11.3938C67.0222 11.7886 66.4428 12.4154 66.108 13.1751C65.7733 13.9348 65.7023 14.784 65.9064 15.5884C66.1105 16.3927 66.5779 17.1064 67.2348 17.6164C67.8917 18.1264 68.7005 18.4038 69.5334 18.4045C70.0325 18.4059 70.5267 18.3067 70.9862 18.1126C72.4513 17.5107 74.096 17.5107 75.561 18.1126C76.4484 18.4971 77.4508 18.5244 78.358 18.1888C79.2651 17.8533 80.0067 17.1809 80.4271 16.3126C80.8475 15.4444 80.9142 14.4477 80.6131 13.5315C80.312 12.6154 79.6666 11.85 78.8122 11.3975ZM77.0223 16.9125C76.7183 16.9127 76.4173 16.8515 76.1377 16.7325C74.3035 15.9778 72.2438 15.9778 70.4096 16.7325C69.8765 16.9611 69.2754 16.9754 68.732 16.7724C68.1887 16.5693 67.7452 16.1647 67.4946 15.6433C67.244 15.1218 67.2057 14.524 67.3877 13.9751C67.5697 13.4261 67.9578 12.9686 68.4709 12.6984C69.0225 12.3949 69.5086 11.9861 69.9015 11.4954C70.2944 11.0046 70.5863 10.4415 70.7606 9.83832C70.9189 9.29521 71.2499 8.81797 71.7038 8.47836C72.1578 8.13875 72.7101 7.95514 73.2778 7.95514C73.8456 7.95514 74.3979 8.13875 74.8519 8.47836C75.3058 8.81797 75.6368 9.29521 75.7951 9.83832C75.9699 10.4427 76.2628 11.0067 76.6568 11.4981C77.0508 11.9895 77.5383 12.3987 78.0914 12.7021C78.5331 12.9381 78.8829 13.3144 79.0851 13.7713C79.2874 14.2281 79.3305 14.7392 79.2076 15.2232C79.0847 15.7073 78.8028 16.1365 78.4069 16.4426C78.0109 16.7487 77.5235 16.9141 77.0223 16.9125Z" fill="white"/>
</svg>
