<svg width="156" height="52" viewBox="0 0 156 52" fill="none" xmlns="http://www.w3.org/2000/svg">
<path d="M5.86924 48.2613H4V31.5504H13.8495V33.2454H5.86924V39.1897H13.6098V40.8846H5.86924V48.2613Z" fill="#161616"/>
<path d="M21.2898 35.943C23.159 35.943 24.6927 36.6035 25.891 37.9244C27.1052 39.2294 27.6404 40.8448 27.4966 42.7706H16.8323C16.9601 43.9801 17.4474 44.9748 18.2942 45.7546C19.1569 46.5186 20.2034 46.9005 21.4335 46.9005C22.3762 46.9005 23.2149 46.6698 23.9498 46.2082C24.6848 45.7467 25.2439 45.118 25.6274 44.3223L27.1611 44.9668C26.6499 46.0332 25.891 46.8926 24.8845 47.5451C23.8779 48.1817 22.7197 48.5 21.4096 48.5C19.6042 48.5 18.0865 47.9032 16.8563 46.7096C15.6421 45.5 15.035 44.004 15.035 42.2215C15.035 40.439 15.6341 38.9509 16.8323 37.7573C18.0306 36.5477 19.5164 35.943 21.2898 35.943ZM21.2898 37.5424C20.1874 37.5424 19.2288 37.8926 18.414 38.5928C17.5992 39.2931 17.088 40.1923 16.8803 41.2905H25.6753C25.4996 40.2082 25.0043 39.317 24.1895 38.6167C23.3907 37.9005 22.4241 37.5424 21.2898 37.5424Z" fill="#161616"/>
<path d="M31.9385 48.2613H30.1411V30.5955H31.9385V48.2613Z" fill="#161616"/>
<path d="M34.7454 32.6008C34.7454 32.2666 34.8572 31.9881 35.0809 31.7653C35.3045 31.5424 35.5841 31.431 35.9196 31.431C36.2392 31.431 36.5108 31.5424 36.7344 31.7653C36.9741 31.9881 37.0939 32.2666 37.0939 32.6008C37.0939 32.9191 36.9741 33.1897 36.7344 33.4125C36.5108 33.6353 36.2392 33.7467 35.9196 33.7467C35.5841 33.7467 35.3045 33.6353 35.0809 33.4125C34.8572 33.1897 34.7454 32.9191 34.7454 32.6008ZM36.8063 48.2613H35.009V36.1817H36.8063V48.2613Z" fill="#161616"/>
<path d="M46.1555 35.943C47.5774 35.943 48.7437 36.4363 49.6544 37.4231C50.581 38.4098 51.0443 39.6512 51.0443 41.1472V48.2613H49.247V41.3621C49.247 40.2958 48.8955 39.4045 48.1925 38.6883C47.4896 37.9562 46.6189 37.5902 45.5804 37.5902C44.4461 37.5902 43.5114 37.9483 42.7765 38.6645C42.0416 39.3806 41.6741 40.2798 41.6741 41.3621V48.2613H39.8768V36.1817H41.6741V39.2851C42.0097 38.2666 42.5768 37.4549 43.3756 36.8501C44.1745 36.2454 45.1011 35.943 46.1555 35.943Z" fill="#161616"/>
<path d="M59.7877 35.943C61.6569 35.943 63.1907 36.6035 64.3889 37.9244C65.6031 39.2294 66.1383 40.8448 65.9945 42.7706H55.3303C55.4581 43.9801 55.9454 44.9748 56.7921 45.7546C57.6548 46.5186 58.7013 46.9005 59.9315 46.9005C60.8741 46.9005 61.7129 46.6698 62.4478 46.2082C63.1827 45.7467 63.7419 45.118 64.1253 44.3223L65.659 44.9668C65.1478 46.0332 64.3889 46.8926 63.3824 47.5451C62.3759 48.1817 61.2176 48.5 59.9075 48.5C58.1022 48.5 56.5844 47.9032 55.3542 46.7096C54.14 45.5 53.5329 44.004 53.5329 42.2215C53.5329 40.439 54.132 38.9509 55.3303 37.7573C56.5285 36.5477 58.0143 35.943 59.7877 35.943ZM59.7877 37.5424C58.6853 37.5424 57.7267 37.8926 56.9119 38.5928C56.0971 39.2931 55.5859 40.1923 55.3782 41.2905H64.1732C63.9975 40.2082 63.5022 39.317 62.6874 38.6167C61.8886 37.9005 60.922 37.5424 59.7877 37.5424Z" fill="#161616"/>
<path d="M77.8368 46.0172C76.1753 44.3621 75.3445 42.3249 75.3445 39.9058C75.3445 37.4867 76.1753 35.4496 77.8368 33.7944C79.5144 32.1393 81.5833 31.3117 84.0437 31.3117C85.8171 31.3117 87.3828 31.7732 88.7408 32.6963C90.0988 33.6034 91.0893 34.7493 91.7124 36.134L90.0109 36.8501C89.4837 35.7202 88.6848 34.805 87.6144 34.1048C86.56 33.3886 85.3697 33.0305 84.0437 33.0305C82.1425 33.0305 80.5368 33.6989 79.2268 35.0358C77.9167 36.3568 77.2617 37.9801 77.2617 39.9058C77.2617 41.8316 77.9167 43.4629 79.2268 44.7997C80.5368 46.1207 82.1425 46.7812 84.0437 46.7812C85.3697 46.7812 86.56 46.431 87.6144 45.7308C88.6848 45.0146 89.4837 44.0915 90.0109 42.9615L91.7124 43.6777C91.0893 45.0623 90.0988 46.2162 88.7408 47.1393C87.3828 48.0464 85.8171 48.5 84.0437 48.5C81.5833 48.5 79.5144 47.6724 77.8368 46.0172Z" fill="#161616"/>
<path d="M99.2249 35.943C100.599 35.943 101.717 36.309 102.58 37.0411C103.443 37.7573 103.874 38.7679 103.874 40.0729V48.2613H102.077V44.9668C101.262 47.3223 99.6803 48.5 97.3317 48.5C96.2293 48.5 95.3267 48.1976 94.6237 47.5928C93.9367 46.9881 93.5932 46.1843 93.5932 45.1817C93.5932 44.0995 93.9847 43.2639 94.7675 42.6751C95.5663 42.0862 96.5968 41.7281 97.8589 41.6008L100.567 41.2905C101.573 41.195 102.077 40.7334 102.077 39.9058C102.077 39.1578 101.813 38.569 101.286 38.1393C100.759 37.7095 100.064 37.4947 99.201 37.4947C98.3382 37.4947 97.5953 37.7095 96.9723 38.1393C96.3492 38.569 95.9258 39.2294 95.7021 40.1207L93.9527 39.6432C94.2403 38.4496 94.8554 37.5345 95.798 36.8979C96.7566 36.2613 97.8989 35.943 99.2249 35.943ZM97.7871 46.996C99.0172 46.996 100.04 46.5902 100.855 45.7785C101.669 44.9509 102.077 43.9881 102.077 42.8899V41.8873C101.853 42.3647 101.31 42.6512 100.447 42.7467L97.835 43.0332C97.1001 43.1286 96.5089 43.3515 96.0616 43.7016C95.6143 44.0358 95.3906 44.4973 95.3906 45.0862C95.3906 45.6592 95.6063 46.1207 96.0376 46.4708C96.485 46.821 97.0681 46.996 97.7871 46.996Z" fill="#161616"/>
<path d="M113.135 35.943C114.557 35.943 115.723 36.4363 116.634 37.4231C117.56 38.4098 118.024 39.6512 118.024 41.1472V48.2613H116.226V41.3621C116.226 40.2958 115.875 39.4045 115.172 38.6883C114.469 37.9562 113.598 37.5902 112.56 37.5902C111.425 37.5902 110.491 37.9483 109.756 38.6645C109.021 39.3806 108.654 40.2798 108.654 41.3621V48.2613H106.856V36.1817H108.654V39.2851C108.989 38.2666 109.556 37.4549 110.355 36.8501C111.154 36.2454 112.08 35.943 113.135 35.943Z" fill="#161616"/>
<path d="M120.728 32.6008C120.728 32.2666 120.84 31.9881 121.063 31.7653C121.287 31.5424 121.567 31.431 121.902 31.431C122.222 31.431 122.493 31.5424 122.717 31.7653C122.957 31.9881 123.077 32.2666 123.077 32.6008C123.077 32.9191 122.957 33.1897 122.717 33.4125C122.493 33.6353 122.222 33.7467 121.902 33.7467C121.567 33.7467 121.287 33.6353 121.063 33.4125C120.84 33.1897 120.728 32.9191 120.728 32.6008ZM122.789 48.2613H120.992V36.1817H122.789V48.2613Z" fill="#161616"/>
<path d="M132.138 35.943C133.56 35.943 134.726 36.4363 135.637 37.4231C136.564 38.4098 137.027 39.6512 137.027 41.1472V48.2613H135.23V41.3621C135.23 40.2958 134.878 39.4045 134.175 38.6883C133.472 37.9562 132.601 37.5902 131.563 37.5902C130.429 37.5902 129.494 37.9483 128.759 38.6645C128.024 39.3806 127.657 40.2798 127.657 41.3621V48.2613H125.859V36.1817H127.657V39.2851C127.992 38.2666 128.559 37.4549 129.358 36.8501C130.157 36.2454 131.084 35.943 132.138 35.943Z" fill="#161616"/>
<path d="M145.77 35.943C147.64 35.943 149.173 36.6035 150.372 37.9244C151.586 39.2294 152.121 40.8448 151.977 42.7706H141.313C141.441 43.9801 141.928 44.9748 142.775 45.7546C143.637 46.5186 144.684 46.9005 145.914 46.9005C146.857 46.9005 147.695 46.6698 148.43 46.2082C149.165 45.7467 149.724 45.118 150.108 44.3223L151.642 44.9668C151.13 46.0332 150.372 46.8926 149.365 47.5451C148.359 48.1817 147.2 48.5 145.89 48.5C144.085 48.5 142.567 47.9032 141.337 46.7096C140.123 45.5 139.516 44.004 139.516 42.2215C139.516 40.439 140.115 38.9509 141.313 37.7573C142.511 36.5477 143.997 35.943 145.77 35.943ZM145.77 37.5424C144.668 37.5424 143.709 37.8926 142.895 38.5928C142.08 39.2931 141.568 40.1923 141.361 41.2905H150.156C149.98 40.2082 149.485 39.317 148.67 38.6167C147.871 37.9005 146.905 37.5424 145.77 37.5424Z" fill="#161616"/>
<path d="M85.1413 7.97613C84.6228 7.97613 84.1161 8.12927 83.685 8.41617C83.254 8.70308 82.918 9.11088 82.7196 9.58799C82.5213 10.0651 82.4693 10.5901 82.5705 11.0966C82.6716 11.6031 82.9213 12.0683 83.2878 12.4335C83.6544 12.7987 84.1214 13.0474 84.6299 13.1481C85.1384 13.2489 85.6654 13.1971 86.1443 12.9995C86.6233 12.8019 87.0326 12.4672 87.3206 12.0378C87.6087 11.6084 87.7624 11.1036 87.7624 10.5872C87.7624 9.8947 87.4862 9.23057 86.9947 8.74089C86.5031 8.25122 85.8364 7.97613 85.1413 7.97613ZM85.1413 11.7062C84.9191 11.7062 84.7019 11.6406 84.5172 11.5176C84.3324 11.3947 84.1884 11.2199 84.1034 11.0154C84.0184 10.811 83.9962 10.586 84.0395 10.3689C84.0828 10.1518 84.1898 9.95243 84.3469 9.79593C84.504 9.63943 84.7042 9.53285 84.9221 9.48967C85.14 9.44649 85.3659 9.46865 85.5711 9.55335C85.7764 9.63805 85.9519 9.78148 86.0753 9.9655C86.1987 10.1495 86.2646 10.3659 86.2646 10.5872C86.2646 10.884 86.1462 11.1686 85.9356 11.3785C85.7249 11.5883 85.4392 11.7062 85.1413 11.7062ZM72.0356 10.5872C72.0356 10.0708 71.8818 9.56596 71.5938 9.13657C71.3058 8.70718 70.8965 8.37251 70.4175 8.17488C69.9386 7.97726 69.4115 7.92555 68.9031 8.0263C68.3946 8.12705 67.9276 8.37573 67.561 8.74089C67.1944 9.10606 66.9448 9.57131 66.8437 10.0778C66.7425 10.5843 66.7944 11.1093 66.9928 11.5864C67.1912 12.0635 67.5272 12.4713 67.9582 12.7582C68.3893 13.0451 68.896 13.1983 69.4144 13.1983C70.1096 13.1983 70.7763 12.9232 71.2679 12.4335C71.7594 11.9438 72.0356 11.2797 72.0356 10.5872ZM69.4144 11.7062C69.1923 11.7062 68.9751 11.6406 68.7903 11.5176C68.6056 11.3947 68.4616 11.2199 68.3766 11.0154C68.2916 10.811 68.2693 10.586 68.3127 10.3689C68.356 10.1518 68.463 9.95243 68.6201 9.79593C68.7772 9.63943 68.9774 9.53285 69.1953 9.48967C69.4132 9.44649 69.6391 9.46865 69.8443 9.55335C70.0496 9.63805 70.225 9.78148 70.3485 9.9655C70.4719 10.1495 70.5378 10.3659 70.5378 10.5872C70.5378 10.884 70.4194 11.1686 70.2088 11.3785C69.9981 11.5883 69.7124 11.7062 69.4144 11.7062ZM73.9078 8.72215C74.4262 8.72215 74.933 8.56901 75.364 8.2821C75.7951 7.9952 76.131 7.5874 76.3294 7.11029C76.5278 6.63318 76.5797 6.10818 76.4786 5.60168C76.3774 5.09518 76.1278 4.62993 75.7612 4.26477C75.3947 3.8996 74.9276 3.65092 74.4192 3.55017C73.9107 3.44942 73.3837 3.50113 72.9048 3.69876C72.4258 3.89638 72.0164 4.23105 71.7284 4.66044C71.4404 5.08983 71.2867 5.59465 71.2867 6.11108C71.2867 6.80358 71.5628 7.46771 72.0544 7.95738C72.5459 8.44705 73.2126 8.72215 73.9078 8.72215ZM73.9078 4.99204C74.13 4.99204 74.3472 5.05767 74.5319 5.18063C74.7166 5.3036 74.8606 5.47836 74.9456 5.68284C75.0307 5.88732 75.0529 6.11232 75.0096 6.32939C74.9662 6.54646 74.8592 6.74585 74.7021 6.90235C74.545 7.05885 74.3449 7.16543 74.127 7.20861C73.9091 7.25178 73.6832 7.22962 73.4779 7.14493C73.2727 7.06023 73.0972 6.9168 72.9738 6.73278C72.8503 6.54875 72.7845 6.3324 72.7845 6.11108C72.7845 5.81429 72.9028 5.52966 73.1135 5.3198C73.3242 5.10994 73.6099 4.99204 73.9078 4.99204ZM80.6479 8.72215C81.1663 8.72215 81.6731 8.56901 82.1041 8.2821C82.5351 7.9952 82.8711 7.5874 83.0695 7.11029C83.2679 6.63318 83.3198 6.10818 83.2187 5.60168C83.1175 5.09518 82.8679 4.62993 82.5013 4.26477C82.1347 3.8996 81.6677 3.65092 81.1592 3.55017C80.6508 3.44942 80.1238 3.50113 79.6448 3.69876C79.1659 3.89638 78.7565 4.23105 78.4685 4.66044C78.1805 5.08983 78.0267 5.59465 78.0267 6.11108C78.0267 6.80358 78.3029 7.46771 78.7944 7.95738C79.286 8.44705 79.9527 8.72215 80.6479 8.72215ZM80.6479 4.99204C80.87 4.99204 81.0872 5.05767 81.272 5.18063C81.4567 5.3036 81.6007 5.47836 81.6857 5.68284C81.7707 5.88732 81.793 6.11232 81.7496 6.32939C81.7063 6.54646 81.5993 6.74585 81.4422 6.90235C81.2851 7.05885 81.0849 7.16543 80.867 7.20861C80.6491 7.25178 80.4233 7.22962 80.218 7.14493C80.0127 7.06023 79.8373 6.9168 79.7139 6.73278C79.5904 6.54875 79.5245 6.3324 79.5245 6.11108C79.5245 5.81429 79.6429 5.52966 79.8536 5.3198C80.0642 5.10994 80.3499 4.99204 80.6479 4.99204ZM82.8122 14.3975C82.4318 14.1885 82.0965 13.9067 81.8255 13.5685C81.5545 13.2302 81.3532 12.842 81.2329 12.4261C80.9839 11.5731 80.4638 10.8236 79.7505 10.2903C79.0373 9.75702 78.1696 9.4687 77.2778 9.4687C76.3861 9.4687 75.5184 9.75702 74.8051 10.2903C74.0919 10.8236 73.5717 11.5731 73.3227 12.4261C73.0822 13.263 72.5183 13.9706 71.7547 14.3938C71.0222 14.7886 70.4428 15.4154 70.108 16.1751C69.7733 16.9348 69.7023 17.784 69.9064 18.5884C70.1105 19.3927 70.5779 20.1064 71.2348 20.6164C71.8917 21.1264 72.7005 21.4038 73.5334 21.4045C74.0325 21.4059 74.5267 21.3067 74.9862 21.1126C76.4513 20.5107 78.096 20.5107 79.561 21.1126C80.4484 21.4971 81.4508 21.5244 82.358 21.1888C83.2651 20.8533 84.0067 20.1809 84.4271 19.3126C84.8475 18.4444 84.9142 17.4477 84.6131 16.5315C84.312 15.6154 83.6666 14.85 82.8122 14.3975ZM81.0223 19.9125C80.7183 19.9127 80.4173 19.8515 80.1377 19.7325C78.3035 18.9778 76.2438 18.9778 74.4096 19.7325C73.8765 19.9611 73.2754 19.9754 72.732 19.7724C72.1887 19.5693 71.7452 19.1647 71.4946 18.6433C71.244 18.1218 71.2057 17.524 71.3877 16.9751C71.5697 16.4261 71.9578 15.9686 72.4709 15.6984C73.0225 15.3949 73.5086 14.9861 73.9015 14.4954C74.2944 14.0046 74.5863 13.4415 74.7606 12.8383C74.9189 12.2952 75.2499 11.818 75.7038 11.4784C76.1578 11.1388 76.7101 10.9551 77.2778 10.9551C77.8456 10.9551 78.3979 11.1388 78.8519 11.4784C79.3058 11.818 79.6368 12.2952 79.7951 12.8383C79.9699 13.4427 80.2628 14.0067 80.6568 14.4981C81.0508 14.9895 81.5383 15.3987 82.0914 15.7021C82.5331 15.9381 82.8829 16.3144 83.0851 16.7713C83.2874 17.2281 83.3305 17.7392 83.2076 18.2232C83.0847 18.7073 82.8028 19.1365 82.4069 19.4426C82.0109 19.7487 81.5235 19.9141 81.0223 19.9125Z" fill="#161616"/>
</svg>
