<svg id="Layer_1" data-name="Layer 1" xmlns="http://www.w3.org/2000/svg" viewBox="0 0 400 200"><defs><style>.cls-1{fill:#005d62;}.cls-2{fill:#fff;}.cls-3{fill:#b2c74f;}</style></defs><path class="cls-1" d="M137.69,140s-19.49,0-19.49,19.49v8.28s0,19.49,19.49,19.49H245.55s19.49,0,19.49-19.49v-8.28S265,140,245.55,140Z"/><path class="cls-2" d="M235.45,154.25v18.13h9.47v-1.8h-7.68v-6.36h7.68v-1.8h-7.68V156h7.68v-1.79Zm-22.68,0v18.13h1.8V157.49l10.62,14.89h2.12V154.25h-1.8v15.26l-10.89-15.26Zm-10.06,18.13h1.79V154.25h-1.79Zm-7.54,0v-1.8h-6.59V154.25h-1.8v18.13ZM164.1,154.25v18.13h1.8V157.49l10.62,14.89h2.12V154.25h-1.8v15.26L166,154.25ZM152.6,158a7.48,7.48,0,1,1-5.3-2.19,7.23,7.23,0,0,1,5.3,2.19m-5.3-4a9.29,9.29,0,1,0,6.58,2.72A9,9,0,0,0,147.3,154"/><path class="cls-1" d="M124.3,109.61l12.14-26H131l-9,18.88L113.14,83.6h-5.47l11.65,24.92-8.25,17.69h5.48l7.72-16.6Zm-24.62,2.31a12.44,12.44,0,0,0,3.69-9V83.57h-5v19.12a7.56,7.56,0,0,1-2.35,5.58,7.67,7.67,0,0,1-5.58,2.32,8,8,0,0,1-5.87-2.35,7.55,7.55,0,0,1-2.35-5.55V83.57H77.33v19.37a12.56,12.56,0,0,0,3.66,9,12.86,12.86,0,0,0,9.53,3.56,12.3,12.3,0,0,0,9.16-3.58m-55-22.25a12.35,12.35,0,0,1,17.53,0,12,12,0,0,1,3.64,8.78A12.38,12.38,0,0,1,53.48,110.8a12,12,0,0,1-8.78-3.65,11.1,11.1,0,0,1-3.33-6V95.78a11.5,11.5,0,0,1,3.33-6.11m-8.28,25.41h4.95v-3.61a17.29,17.29,0,0,0,12.11,4.46A17.48,17.48,0,0,0,65.83,86.08,16.84,16.84,0,0,0,53.48,81a17.35,17.35,0,0,0-12.11,4.42V65.21H36.42Z"/><path class="cls-1" d="M358.88,100.51a4.61,4.61,0,0,1,1.48,3.41,5,5,0,0,1-4.92,5,4.66,4.66,0,0,1-3.43-1.44q-1.44-1.44-1.44-5l-4.92,1.26a9.84,9.84,0,0,0,2.86,7.23,9.77,9.77,0,0,0,13.85,0,9.56,9.56,0,0,0,2.84-7A9.46,9.46,0,0,0,362.36,97a26,26,0,0,0-5.65-3.86,17.52,17.52,0,0,1-2.92-2.11,3.24,3.24,0,0,1,2.29-5.51,2.88,2.88,0,0,1,2.16.85c.54.56,1,2,1.28,4.17l4.35-1.75v-.91a6.9,6.9,0,0,0-2.18-5,7.61,7.61,0,0,0-5.61-2.25,8.14,8.14,0,0,0-5.76,13.9,22.24,22.24,0,0,0,4.95,3.33,25.93,25.93,0,0,1,3.61,2.63M325,82.26v4.95h6v26.54h4.91V87.21h6V82.26h-6V69.81H331V82.26Zm-3.1,14.47q0-7.41-4.53-12a17.48,17.48,0,1,0-24.74,24.71,17.42,17.42,0,0,0,24.71,0,18.2,18.2,0,0,0,3-3.83l-4.91-1.72a25.31,25.31,0,0,1-1.68,1.93,12.4,12.4,0,0,1-17.55,0,12.62,12.62,0,0,1-3.69-9.12Zm-25.69-8.39a12.37,12.37,0,0,1,17.55,0,9.84,9.84,0,0,1,2.45,3.4h-22.6a11.37,11.37,0,0,1,2.6-3.4m-39.61,0a12.41,12.41,0,1,1,0,17.51,11.17,11.17,0,0,1-3.33-6V94.44a11.47,11.47,0,0,1,3.33-6.1m-8.28,36.57h5V110.13a2.2,2.2,0,0,1-.35-.56,0,0,0,0,1,0,0,13.75,13.75,0,0,1,2.14,2c2,2.06,5.46,3.09,10.29,3.09a17.47,17.47,0,0,0,12.35-29.83,16.87,16.87,0,0,0-12.35-5.09,17.44,17.44,0,0,0-12.11,4.38V82.26h-5Z"/><path class="cls-3" d="M210.88,133A27.66,27.66,0,0,1,199,130.39a15.37,15.37,0,0,0-13.72,0A29.88,29.88,0,0,1,143.4,106.5c-1.36-12.19,3.37-21.75,13.42-28.63A20.21,20.21,0,0,0,164.3,69C169,58.24,177.17,51.89,188.78,50.6S209.59,53.74,216.49,63a28.84,28.84,0,0,1,3.35,6.09A20,20,0,0,0,227.52,78c9,6.11,13.6,14.75,13.39,25.62a30,30,0,0,1-30,29.3"/><path class="cls-3" d="M169.48,12.75a15.05,15.05,0,1,1-15.07,14.73,15,15,0,0,1,15.07-14.73"/><path class="cls-3" d="M214.6,12.75a15,15,0,1,1-15,14.77,15,15,0,0,1,15-14.77"/><path class="cls-3" d="M139.4,72.84a15,15,0,1,1,15-15,15.08,15.08,0,0,1-15,15"/><path class="cls-3" d="M244.72,72.84A15,15,0,1,1,259.8,57.91a15,15,0,0,1-15.08,14.93"/><path class="cls-2" d="M174.83,100.12l18.32-22.07v22.07Zm18.32,16.33a4.71,4.71,0,0,0,9.41,0v-8.28h4.3a4,4,0,0,0,4.06-4,4,4,0,0,0-4.06-4.06h-4.3V68.81a4.73,4.73,0,0,0-4.79-4.7c-2.86,0-4.22,1.11-6,3.18L165.59,98.37a7.61,7.61,0,0,0-2.15,5.18,4.61,4.61,0,0,0,4.78,4.62h24.93Z"/></svg>